<?xml version="1.0" standalone="yes"?>

<svg version="1.1" viewBox="0.0 0.0 960.0 720.0" fill="none" stroke="none" stroke-linecap="square" stroke-miterlimit="10" xmlns="http://www.w3.org/2000/svg" xmlns:xlink="http://www.w3.org/1999/xlink"><clipPath id="p.0"><path d="m0 0l960.0 0l0 720.0l-960.0 0l0 -720.0z" clip-rule="nonzero"></path></clipPath><g clip-path="url(#p.0)"><path fill="#000000" fill-opacity="0.0" d="m0 0l960.0 0l0 720.0l-960.0 0z" fill-rule="nonzero"></path><path fill="#cfe2f3" d="m184.0 212.0l0 0c0 -15.463974 12.536026 -28.0 28.0 -28.0l0 0c7.426056 0 14.547974 2.949997 19.798996 8.201004c5.251007 5.2510223 8.201004 12.37294 8.201004 19.798996l0 0c0 15.463974 -12.536026 28.0 -28.0 28.0l0 0c-15.463974 0 -28.0 -12.536026 -28.0 -28.0z" fill-rule="nonzero"></path><path stroke="#000000" stroke-width="2.0" stroke-linejoin="round" stroke-linecap="butt" d="m184.0 212.0l0 0c0 -15.463974 12.536026 -28.0 28.0 -28.0l0 0c7.426056 0 14.547974 2.949997 19.798996 8.201004c5.251007 5.2510223 8.201004 12.37294 8.201004 19.798996l0 0c0 15.463974 -12.536026 28.0 -28.0 28.0l0 0c-15.463974 0 -28.0 -12.536026 -28.0 -28.0z" fill-rule="nonzero"></path><path fill="#000000" d="m211.19322 207.2325l0 -1.90625l1.671875 0l0 1.90625l-1.671875 0zm0 11.6875l0 -9.859375l1.671875 0l0 9.859375l-1.671875 0z" fill-rule="nonzero"></path><path fill="#cfe2f3" d="m536.0 276.0l0 0c0 -15.463959 12.536011 -28.0 28.0 -28.0l0 0c7.4260864 0 14.547974 2.949997 19.799011 8.201019c5.2509766 5.251007 8.200989 12.372925 8.200989 19.79898l0 0c0 15.463959 -12.536011 28.0 -28.0 28.0l0 0c-15.463989 0 -28.0 -12.536041 -28.0 -28.0z" fill-rule="nonzero"></path><path stroke="#000000" stroke-width="2.0" stroke-linejoin="round" stroke-linecap="butt" d="m536.0 276.0l0 0c0 -15.463959 12.536011 -28.0 28.0 -28.0l0 0c7.4260864 0 14.547974 2.949997 19.799011 8.201019c5.2509766 5.251007 8.200989 12.372925 8.200989 19.79898l0 0c0 15.463959 -12.536011 28.0 -28.0 28.0l0 0c-15.463989 0 -28.0 -12.536041 -28.0 -28.0z" fill-rule="nonzero"></path><path fill="#000000" d="m559.71906 271.26376l0 -1.9375l1.65625 0l0 1.9375l-1.65625 0zm-2.125 15.484375l0.3125 -1.421875q0.5 0.125 0.796875 0.125q0.515625 0 0.765625 -0.34375q0.25 -0.328125 0.25 -1.6875l0 -10.359375l1.65625 0l0 10.390625q0 1.828125 -0.46875 2.546875q-0.59375 0.921875 -2.0 0.921875q-0.671875 0 -1.3125 -0.171875z" fill-rule="nonzero"></path><path fill="#000000" d="m568.66077 288.90436l0 1.015625l-5.6875 0q0 -0.375 0.125 -0.734375q0.21875 -0.578125 0.6875 -1.140625q0.484375 -0.5625 1.390625 -1.296875q1.40625 -1.15625 1.890625 -1.828125q0.5 -0.671875 0.5 -1.265625q0 -0.625 -0.453125 -1.046875q-0.453125 -0.4375 -1.171875 -0.4375q-0.765625 0 -1.21875 0.453125q-0.453125 0.453125 -0.46875 1.265625l-1.078125 -0.109375q0.109375 -1.21875 0.828125 -1.84375q0.734375 -0.640625 1.96875 -0.640625q1.234375 0 1.953125 0.6875q0.71875 0.6875 0.71875 1.703125q0 0.515625 -0.21875 1.015625q-0.203125 0.484375 -0.703125 1.046875q-0.484375 0.546875 -1.609375 1.5q-0.953125 0.796875 -1.234375 1.09375q-0.265625 0.28125 -0.4375 0.5625l4.21875 0z" fill-rule="nonzero"></path><path fill="#000000" fill-opacity="0.0" d="m240.0 208.0l112.0 0" fill-rule="nonzero"></path><path stroke="#000000" stroke-width="2.0" stroke-linejoin="round" stroke-linecap="butt" d="m240.0 208.0l112.0 0" fill-rule="nonzero"></path><path fill="#000000" fill-opacity="0.0" d="m352.0 208.0l0 -72.0" fill-rule="nonzero"></path><path stroke="#000000" stroke-width="2.0" stroke-linejoin="round" stroke-linecap="butt" d="m352.0 208.0l0 -72.0" fill-rule="nonzero"></path><path fill="#000000" fill-opacity="0.0" d="m352.0 280.0l0 -72.0" fill-rule="nonzero"></path><path stroke="#000000" stroke-width="2.0" stroke-linejoin="round" stroke-linecap="butt" d="m352.0 280.0l0 -72.0" fill-rule="nonzero"></path><path fill="#000000" fill-opacity="0.0" d="m352.0 136.0l192.0 0" fill-rule="nonzero"></path><path stroke="#000000" stroke-width="2.0" stroke-linejoin="round" stroke-linecap="butt" d="m352.0 136.0l192.0 0" fill-rule="nonzero"></path><path fill="#000000" fill-opacity="0.0" d="m352.0 280.0l184.0 0" fill-rule="nonzero"></path><path stroke="#000000" stroke-width="2.0" stroke-linejoin="round" stroke-linecap="butt" d="m352.0 280.0l184.0 0" fill-rule="nonzero"></path><path fill="#000000" fill-opacity="0.0" d="m256.0 168.0l71.46457 0l0 48.0l-71.46457 0z" fill-rule="nonzero"></path><path fill="#000000" d="m274.91766 187.56062l-2.75 7.359375l-1.765625 0l3.65625 -9.671875l-1.46875 -3.921875l1.765625 0l5.09375 13.59375l-1.765625 0l-2.765625 -7.359375zm19.80832 -0.640625l-8.96875 0l0 -1.5625l8.96875 0l0 1.5625zm0 4.125l-8.96875 0l0 -1.546875l8.96875 0l0 1.546875zm6.8439026 0.28125l1.671875 -0.21875q0.28125 1.421875 0.96875 2.046875q0.703125 0.625 1.6875 0.625q1.1875 0 2.0 -0.8125q0.8125 -0.828125 0.8125 -2.03125q0 -1.140625 -0.765625 -1.890625q-0.75 -0.75 -1.90625 -0.75q-0.46875 0 -1.171875 0.1875l0.1875 -1.46875q0.15625 0.015625 0.265625 0.015625q1.0625 0 1.90625 -0.546875q0.859375 -0.5625 0.859375 -1.71875q0 -0.921875 -0.625 -1.515625q-0.609375 -0.609375 -1.59375 -0.609375q-0.96875 0 -1.625 0.609375q-0.640625 0.609375 -0.828125 1.84375l-1.671875 -0.296875q0.296875 -1.6875 1.375 -2.609375q1.09375 -0.921875 2.71875 -0.921875q1.109375 0 2.046875 0.484375q0.9375 0.46875 1.421875 1.296875q0.5 0.828125 0.5 1.75q0 0.890625 -0.46875 1.609375q-0.46875 0.71875 -1.40625 1.15625q1.21875 0.265625 1.875 1.15625q0.671875 0.875 0.671875 2.1875q0 1.78125 -1.296875 3.015625q-1.296875 1.234375 -3.28125 1.234375q-1.796875 0 -2.984375 -1.0625q-1.171875 -1.0625 -1.34375 -2.765625z" fill-rule="nonzero"></path><path fill="#000000" fill-opacity="0.0" d="m344.0 191.46457l0 -71.46457l48.0 0l0 71.46457z" fill-rule="nonzero"></path><path fill="#000000" d="m363.54498 179.1052q-0.375 1.046875 -1.078125 1.546875q-0.71875 0.5 -1.703125 0.5q-1.484375 0 -2.484375 -1.0625q-1.015625 -1.078125 -1.015625 -2.84375q0 -1.78125 1.03125 -2.859375q1.03125 -1.09375 2.515625 -1.09375q0.953125 0 1.65625 0.5q0.703125 0.484375 1.078125 1.5q0.40625 -1.25 1.3125 -1.90625q0.90625 -0.65625 2.171875 -0.65625q1.75 0 2.9375 1.234375q1.1875 1.234375 1.1875 3.25q0 2.015625 -1.1875 3.25q-1.203125 1.234375 -2.984375 1.234375q-1.328125 0 -2.21875 -0.671875q-0.890625 -0.671875 -1.21875 -1.921875zm-2.828125 0.328125q0.96875 0 1.578125 -0.609375q0.609375 -0.625 0.609375 -1.625q0 -0.953125 -0.609375 -1.5625q-0.609375 -0.625 -1.484375 -0.625q-0.921875 0 -1.546875 0.640625q-0.625 0.625 -0.625 1.578125q0 0.953125 0.609375 1.578125q0.609375 0.625 1.46875 0.625zm6.28125 0.546875q0.71875 0 1.390625 -0.328125q0.65625 -0.34375 1.03125 -1.015625q0.359375 -0.671875 0.359375 -1.4375q0 -1.203125 -0.765625 -1.984375q-0.78125 -0.78125 -1.96875 -0.78125q-1.203125 0 -1.984375 0.8125q-0.796875 0.796875 -0.796875 2.0q0 1.1875 0.78125 1.96875q0.78125 0.765625 1.953125 0.765625zm-2.78125 -8.672592q-2.421875 0 -3.890625 -0.5q-1.46875 -0.5 -2.265625 -1.46875q-0.796875 -0.984375 -0.796875 -2.46875q0 -1.09375 0.4375 -1.921875q0.4375 -0.828125 1.28125 -1.359375q0.828125 -0.546875 2.015625 -0.84375q1.1875 -0.3125 3.21875 -0.3125q2.390625 0 3.859375 0.5q1.46875 0.484375 2.28125 1.46875q0.796875 0.96875 0.796875 2.46875q0 1.96875 -1.40625 3.078125q-1.703125 1.359375 -5.53125 1.359375zm0 -1.71875q3.34375 0 4.453125 -0.78125q1.109375 -0.796875 1.109375 -1.9375q0 -1.15625 -1.109375 -1.9375q-1.125 -0.78125 -4.453125 -0.78125q-3.359375 0 -4.46875 0.78125q-1.109375 0.78125 -1.109375 1.953125q0 1.15625 0.984375 1.828125q1.234375 0.875 4.59375 0.875zm-3.625 -8.985092q-1.46875 0 -2.484375 -0.71875q-1.015625 -0.734375 -1.015625 -2.140625q0 -1.265625 0.921875 -2.109375q0.90625 -0.84375 2.671875 -0.84375q1.734375 0 2.671875 0.859375q0.921875 0.84375 0.921875 2.078125q0 1.234375 -0.921875 2.0625q-0.921875 0.8125 -2.765625 0.8125zm-2.359375 -2.90625q0 0.625 0.546875 1.046875q0.53125 0.40625 1.96875 0.40625q1.3125 0 1.84375 -0.40625q0.53125 -0.421875 0.53125 -1.046875q0 -0.625 -0.53125 -1.03125q-0.546875 -0.421875 -1.96875 -0.421875q-1.3125 0 -1.84375 0.421875q-0.546875 0.421875 -0.546875 1.03125zm13.1875 0l-14.328125 -7.4375l0 -1.359375l14.328125 7.40625l0 1.390625zm-3.6875 -5.890625q-1.46875 0 -2.484375 -0.71875q-1.015625 -0.734375 -1.015625 -2.140625q0 -1.28125 0.921875 -2.109375q0.90625 -0.84375 2.671875 -0.84375q1.734375 0 2.671875 0.84375q0.921875 0.84375 0.921875 2.09375q0 1.234375 -0.921875 2.0625q-0.921875 0.8125 -2.765625 0.8125zm-2.34375 -2.90625q0 0.625 0.53125 1.046875q0.53125 0.40625 1.96875 0.40625q1.3125 0 1.84375 -0.40625q0.53125 -0.421875 0.53125 -1.03125q0 -0.640625 -0.53125 -1.046875q-0.53125 -0.421875 -1.96875 -0.421875q-1.3125 0 -1.84375 0.421875q-0.53125 0.40625 -0.53125 1.03125z" fill-rule="nonzero"></path><path fill="#000000" fill-opacity="0.0" d="m344.0 279.46457l0 -71.46457l48.0 0l0 71.46457z" fill-rule="nonzero"></path><path fill="#000000" d="m369.3106 260.90207l1.609375 0l0 8.984375q-0.609375 0.015625 -1.15625 -0.1875q-0.921875 -0.34375 -1.8125 -1.09375q-0.890625 -0.765625 -2.0625 -2.1875q-1.8125 -2.21875 -2.875 -3.0q-1.0625 -0.78125 -2.015625 -0.78125q-0.984375 0 -1.671875 0.71875q-0.6875 0.703125 -0.6875 1.84375q0 1.203125 0.734375 1.9375q0.71875 0.71875 2.0 0.71875l-0.171875 1.71875q-1.921875 -0.171875 -2.921875 -1.328125q-1.015625 -1.15625 -1.015625 -3.09375q0 -1.953125 1.09375 -3.09375q1.078125 -1.140625 2.6875 -1.140625q0.8125 0 1.609375 0.34375q0.78125 0.328125 1.65625 1.109375q0.859375 0.765625 2.390625 2.5625q1.265625 1.5 1.71875 1.9375q0.4375 0.421875 0.890625 0.703125l0 -6.671875zm-5.09375 -1.5944824q-2.421875 0 -3.890625 -0.5q-1.46875 -0.5 -2.265625 -1.46875q-0.796875 -0.984375 -0.796875 -2.4687347q0 -1.09375 0.4375 -1.921875q0.4375 -0.828125 1.28125 -1.359375q0.828125 -0.546875 2.015625 -0.84375q1.1875 -0.3125 3.21875 -0.3125q2.390625 0 3.859375 0.5q1.46875 0.484375 2.28125 1.46875q0.796875 0.96875 0.796875 2.46875q0 1.9687347 -1.40625 3.0781097q-1.703125 1.359375 -5.53125 1.359375zm0 -1.71875q3.34375 0 4.453125 -0.78125q1.109375 -0.796875 1.109375 -1.9374847q0 -1.15625 -1.109375 -1.9375q-1.125 -0.78125 -4.453125 -0.78125q-3.359375 0 -4.46875 0.78125q-1.109375 0.78125 -1.109375 1.953125q0 1.1562347 0.984375 1.8281097q1.234375 0.875 4.59375 0.875zm-3.625 -8.985077q-1.46875 0 -2.484375 -0.71875q-1.015625 -0.734375 -1.015625 -2.140625q0 -1.265625 0.921875 -2.109375q0.90625 -0.84375 2.671875 -0.84375q1.734375 0 2.671875 0.859375q0.921875 0.84375 0.921875 2.078125q0 1.234375 -0.921875 2.0625q-0.921875 0.8125 -2.765625 0.8125zm-2.359375 -2.90625q0 0.625 0.546875 1.046875q0.53125 0.40625 1.96875 0.40625q1.3125 0 1.84375 -0.40625q0.53125 -0.421875 0.53125 -1.046875q0 -0.625 -0.53125 -1.03125q-0.546875 -0.421875 -1.96875 -0.421875q-1.3125 0 -1.84375 0.421875q-0.546875 0.421875 -0.546875 1.03125zm13.1875 0l-14.328125 -7.4375l0 -1.359375l14.328125 7.40625l0 1.390625zm-3.6875 -5.890625q-1.46875 0 -2.484375 -0.71875q-1.015625 -0.734375 -1.015625 -2.140625q0 -1.28125 0.921875 -2.109375q0.90625 -0.84375 2.671875 -0.84375q1.734375 0 2.671875 0.84375q0.921875 0.84375 0.921875 2.09375q0 1.234375 -0.921875 2.0625q-0.921875 0.8125 -2.765625 0.8125zm-2.34375 -2.90625q0 0.625 0.53125 1.046875q0.53125 0.40625 1.96875 0.40625q1.3125 0 1.84375 -0.40625q0.53125 -0.421875 0.53125 -1.03125q0 -0.640625 -0.53125 -1.046875q-0.53125 -0.421875 -1.96875 -0.421875q-1.3125 0 -1.84375 0.421875q-0.53125 0.40625 -0.53125 1.03125z" fill-rule="nonzero"></path><path fill="#000000" fill-opacity="0.0" d="m384.0 103.81102l151.08661 0l0 32.18898l-151.08661 0z" fill-rule="nonzero"></path><path fill="#000000" d="m402.91766 123.37164l-2.75 7.359375l-1.765625 0l3.65625 -9.671875l-1.46875 -3.921875l1.765625 0l5.09375 13.59375l-1.765625 0l-2.765625 -7.359375zm14.625 -0.640625l-8.96875 0l0 -1.5625l8.96875 0l0 1.5625zm0 4.125l-8.96875 0l0 -1.546875l8.96875 0l0 1.546875zm6.8439026 0.28125l1.671875 -0.21875q0.28125 1.421875 0.96875 2.046875q0.703125 0.625 1.6875 0.625q1.1875 0 2.0 -0.8125q0.8125 -0.828125 0.8125 -2.03125q0 -1.140625 -0.765625 -1.890625q-0.75 -0.75 -1.90625 -0.75q-0.46875 0 -1.171875 0.1875l0.1875 -1.46875q0.15625 0.015625 0.265625 0.015625q1.0625 0 1.90625 -0.546875q0.859375 -0.5625 0.859375 -1.71875q0 -0.921875 -0.625 -1.515625q-0.609375 -0.609375 -1.59375 -0.609375q-0.96875 0 -1.625 0.609375q-0.640625 0.609375 -0.828125 1.84375l-1.671875 -0.296875q0.296875 -1.6875 1.375 -2.609375q1.09375 -0.921875 2.71875 -0.921875q1.109375 0 2.046875 0.484375q0.9375 0.46875 1.421875 1.296875q0.5 0.828125 0.5 1.75q0 0.890625 -0.46875 1.609375q-0.46875 0.71875 -1.40625 1.15625q1.21875 0.265625 1.875 1.15625q0.671875 0.875 0.671875 2.1875q0 1.78125 -1.296875 3.015625q-1.296875 1.234375 -3.28125 1.234375q-1.796875 0 -2.984375 -1.0625q-1.171875 -1.0625 -1.34375 -2.765625zm10.172577 -7.515625l0.421875 -1.3125q1.484375 0.515625 2.140625 0.90625q-0.171875 -1.6875 -0.171875 -2.3125l1.34375 0q-0.03125 0.90625 -0.21875 2.296875q0.953125 -0.484375 2.1875 -0.890625l0.421875 1.3125q-1.171875 0.390625 -2.296875 0.53125q0.5625 0.484375 1.59375 1.75l-1.109375 0.78125q-0.546875 -0.734375 -1.28125 -1.984375q-0.6875 1.296875 -1.203125 1.984375l-1.09375 -0.78125q1.078125 -1.328125 1.53125 -1.75q-1.1875 -0.234375 -2.265625 -0.53125zm7.4477844 4.40625q0 -2.421875 0.5 -3.890625q0.5 -1.46875 1.46875 -2.265625q0.984375 -0.796875 2.46875 -0.796875q1.09375 0 1.921875 0.4375q0.828125 0.4375 1.359375 1.28125q0.546875 0.828125 0.84375 2.015625q0.3125 1.1875 0.3125 3.21875q0 2.390625 -0.5 3.859375q-0.484375 1.46875 -1.46875 2.28125q-0.96875 0.796875 -2.46875 0.796875q-1.96875 0 -3.078125 -1.40625q-1.359375 -1.703125 -1.359375 -5.53125zm1.71875 0q0 3.34375 0.78125 4.453125q0.796875 1.109375 1.9375 1.109375q1.15625 0 1.9375 -1.109375q0.78125 -1.125 0.78125 -4.453125q0 -3.359375 -0.78125 -4.46875q-0.78125 -1.109375 -1.953125 -1.109375q-1.15625 0 -1.828125 0.984375q-0.875 1.234375 -0.875 4.59375zm9.594452 6.703125l0 -1.90625l1.90625 0l0 1.90625l-1.90625 0zm6.823944 -7.375q-1.046875 -0.375 -1.546875 -1.078125q-0.5 -0.71875 -0.5 -1.703125q0 -1.484375 1.0625 -2.484375q1.078125 -1.015625 2.84375 -1.015625q1.78125 0 2.859375 1.03125q1.09375 1.03125 1.09375 2.515625q0 0.953125 -0.5 1.65625q-0.484375 0.703125 -1.5 1.078125q1.25 0.40625 1.90625 1.3125q0.65625 0.90625 0.65625 2.171875q0 1.75 -1.234375 2.9375q-1.234375 1.1875 -3.25 1.1875q-2.015625 0 -3.25 -1.1875q-1.234375 -1.203125 -1.234375 -2.984375q0 -1.328125 0.671875 -2.21875q0.671875 -0.890625 1.921875 -1.21875zm-0.328125 -2.828125q0 0.96875 0.609375 1.578125q0.625 0.609375 1.625 0.609375q0.953125 0 1.5625 -0.609375q0.625 -0.609375 0.625 -1.484375q0 -0.921875 -0.640625 -1.546875q-0.625 -0.625 -1.578125 -0.625q-0.953125 0 -1.578125 0.609375q-0.625 0.609375 -0.625 1.46875zm-0.546875 6.28125q0 0.71875 0.328125 1.390625q0.34375 0.65625 1.015625 1.03125q0.671875 0.359375 1.4375 0.359375q1.203125 0 1.984375 -0.765625q0.78125 -0.78125 0.78125 -1.96875q0 -1.203125 -0.8125 -1.984375q-0.796875 -0.796875 -2.0 -0.796875q-1.1875 0 -1.96875 0.78125q-0.765625 0.78125 -0.765625 1.953125zm23.105896 -4.078125l-8.96875 0l0 -1.5625l8.96875 0l0 1.5625zm0 4.125l-8.96875 0l0 -1.546875l8.96875 0l0 1.546875zm15.609528 2.265625l0 1.609375l-8.984375 0q-0.015625 -0.609375 0.1875 -1.15625q0.34375 -0.921875 1.09375 -1.8125q0.765625 -0.890625 2.1875 -2.0625q2.21875 -1.8125 3.0 -2.875q0.78125 -1.0625 0.78125 -2.015625q0 -0.984375 -0.71875 -1.671875q-0.703125 -0.6875 -1.84375 -0.6875q-1.203125 0 -1.9375 0.734375q-0.71875 0.71875 -0.71875 2.0l-1.71875 -0.171875q0.171875 -1.921875 1.328125 -2.921875q1.15625 -1.015625 3.09375 -1.015625q1.953125 0 3.09375 1.09375q1.140625 1.078125 1.140625 2.6875q0 0.8125 -0.34375 1.609375q-0.328125 0.78125 -1.109375 1.65625q-0.765625 0.859375 -2.5625 2.390625q-1.5 1.265625 -1.9375 1.71875q-0.421875 0.4375 -0.703125 0.890625l6.671875 0zm2.531952 1.609375l0 -1.90625l1.90625 0l0 1.90625l-1.90625 0zm9.605194 0l0 -3.25l-5.90625 0l0 -1.53125l6.21875 -8.8125l1.359375 0l0 8.8125l1.84375 0l0 1.53125l-1.84375 0l0 3.25l-1.671875 0zm0 -4.78125l0 -6.140625l-4.25 6.140625l4.25 0z" fill-rule="nonzero"></path><path fill="#cfe2f3" d="m536.0 140.0l0 0c0 -15.463974 12.536011 -28.0 28.0 -28.0l0 0c7.4260864 0 14.547974 2.9499893 19.799011 8.201012c5.2509766 5.2510147 8.200989 12.372932 8.200989 19.798988l0 0c0 15.463974 -12.536011 28.0 -28.0 28.0l0 0c-15.463989 0 -28.0 -12.536026 -28.0 -28.0z" fill-rule="nonzero"></path><path stroke="#000000" stroke-width="2.0" stroke-linejoin="round" stroke-linecap="butt" d="m536.0 140.0l0 0c0 -15.463974 12.536011 -28.0 28.0 -28.0l0 0c7.4260864 0 14.547974 2.9499893 19.799011 8.201012c5.2509766 5.2510147 8.200989 12.372932 8.200989 19.798988l0 0c0 15.463974 -12.536011 28.0 -28.0 28.0l0 0c-15.463989 0 -28.0 -12.536026 -28.0 -28.0z" fill-rule="nonzero"></path><path fill="#000000" d="m559.71906 135.26375l0 -1.9375l1.65625 0l0 1.9375l-1.65625 0zm-2.125 15.484375l0.3125 -1.421875q0.5 0.125 0.796875 0.125q0.515625 0 0.765625 -0.34375q0.25 -0.328125 0.25 -1.6875l0 -10.359375l1.65625 0l0 10.390625q0 1.828125 -0.46875 2.546875q-0.59375 0.921875 -2.0 0.921875q-0.671875 0 -1.3125 -0.171875z" fill-rule="nonzero"></path><path fill="#000000" d="m567.08264 153.92l-1.046875 0l0 -6.71875q-0.390625 0.359375 -1.015625 0.734375q-0.609375 0.359375 -1.09375 0.53125l0 -1.015625q0.875 -0.421875 1.53125 -1.0q0.671875 -0.59375 0.953125 -1.15625l0.671875 0l0 8.625z" fill-rule="nonzero"></path><path fill="#000000" fill-opacity="0.0" d="m384.0 272.0l150.74017 0l0 32.188965l-150.74017 0z" fill-rule="nonzero"></path><path fill="#000000" d="m402.91766 291.5606l-2.75 7.359375l-1.765625 0l3.65625 -9.671875l-1.46875 -3.921875l1.765625 0l5.09375 13.59375l-1.765625 0l-2.765625 -7.359375zm19.80832 -0.640625l-8.96875 0l0 -1.5625l8.96875 0l0 1.5625zm0 4.125l-8.96875 0l0 -1.546875l8.96875 0l0 1.546875zm6.8439026 0.28125l1.671875 -0.21875q0.28125 1.421875 0.96875 2.046875q0.703125 0.625 1.6875 0.625q1.1875 0 2.0 -0.8125q0.8125 -0.828125 0.8125 -2.03125q0 -1.140625 -0.765625 -1.890625q-0.75 -0.75 -1.90625 -0.75q-0.46875 0 -1.171875 0.1875l0.1875 -1.46875q0.15625 0.015625 0.265625 0.015625q1.0625 0 1.90625 -0.546875q0.859375 -0.5625 0.859375 -1.71875q0 -0.921875 -0.625 -1.515625q-0.609375 -0.609375 -1.59375 -0.609375q-0.96875 0 -1.625 0.609375q-0.640625 0.609375 -0.828125 1.84375l-1.671875 -0.296875q0.296875 -1.6875 1.375 -2.609375q1.09375 -0.921875 2.71875 -0.921875q1.109375 0 2.046875 0.484375q0.9375 0.46875 1.421875 1.296875q0.5 0.828125 0.5 1.75q0 0.890625 -0.46875 1.609375q-0.46875 0.71875 -1.40625 1.15625q1.21875 0.265625 1.875 1.15625q0.671875 0.875 0.671875 2.1875q0 1.78125 -1.296875 3.015625q-1.296875 1.234375 -3.28125 1.234375q-1.796875 0 -2.984375 -1.0625q-1.171875 -1.0625 -1.34375 -2.765625zm10.172577 -7.515625l0.421875 -1.3125q1.484375 0.515625 2.140625 0.90625q-0.171875 -1.6875 -0.171875 -2.3125l1.34375 0q-0.03125 0.90625 -0.21875 2.296875q0.953125 -0.484375 2.1875 -0.890625l0.421875 1.3125q-1.171875 0.390625 -2.296875 0.53125q0.5625 0.484375 1.59375 1.75l-1.109375 0.78125q-0.546875 -0.734375 -1.28125 -1.984375q-0.6875 1.296875 -1.203125 1.984375l-1.09375 -0.78125q1.078125 -1.328125 1.53125 -1.75q-1.1875 -0.234375 -2.265625 -0.53125zm7.4477844 4.40625q0 -2.421875 0.5 -3.890625q0.5 -1.46875 1.46875 -2.265625q0.984375 -0.796875 2.46875 -0.796875q1.09375 0 1.921875 0.4375q0.828125 0.4375 1.359375 1.28125q0.546875 0.828125 0.84375 2.015625q0.3125 1.1875 0.3125 3.21875q0 2.390625 -0.5 3.859375q-0.484375 1.46875 -1.46875 2.28125q-0.96875 0.796875 -2.46875 0.796875q-1.96875 0 -3.078125 -1.40625q-1.359375 -1.703125 -1.359375 -5.53125zm1.71875 0q0 3.34375 0.78125 4.453125q0.796875 1.109375 1.9375 1.109375q1.15625 0 1.9375 -1.109375q0.78125 -1.125 0.78125 -4.453125q0 -3.359375 -0.78125 -4.46875q-0.78125 -1.109375 -1.953125 -1.109375q-1.15625 0 -1.828125 0.984375q-0.875 1.234375 -0.875 4.59375zm9.594452 6.703125l0 -1.90625l1.90625 0l0 1.90625l-1.90625 0zm13.027069 -1.609375l0 1.609375l-8.984375 0q-0.015625 -0.609375 0.1875 -1.15625q0.34375 -0.921875 1.09375 -1.8125q0.765625 -0.890625 2.1875 -2.0625q2.21875 -1.8125 3.0 -2.875q0.78125 -1.0625 0.78125 -2.015625q0 -0.984375 -0.71875 -1.671875q-0.703125 -0.6875 -1.84375 -0.6875q-1.203125 0 -1.9375 0.734375q-0.71875 0.71875 -0.71875 2.0l-1.71875 -0.171875q0.171875 -1.921875 1.328125 -2.921875q1.15625 -1.015625 3.09375 -1.015625q1.953125 0 3.09375 1.09375q1.140625 1.078125 1.140625 2.6875q0 0.8125 -0.34375 1.609375q-0.328125 0.78125 -1.109375 1.65625q-0.765625 0.859375 -2.5625 2.390625q-1.5 1.265625 -1.9375 1.71875q-0.421875 0.4375 -0.703125 0.890625l6.671875 0zm16.027771 -6.390625l-8.96875 0l0 -1.5625l8.96875 0l0 1.5625zm0 4.125l-8.96875 0l0 -1.546875l8.96875 0l0 1.546875zm6.828247 -2.828125q0 -2.421875 0.5 -3.890625q0.5 -1.46875 1.46875 -2.265625q0.984375 -0.796875 2.46875 -0.796875q1.09375 0 1.921875 0.4375q0.828125 0.4375 1.359375 1.28125q0.546875 0.828125 0.84375 2.015625q0.3125 1.1875 0.3125 3.21875q0 2.390625 -0.5 3.859375q-0.484375 1.46875 -1.46875 2.28125q-0.96875 0.796875 -2.46875 0.796875q-1.96875 0 -3.078125 -1.40625q-1.359375 -1.703125 -1.359375 -5.53125zm1.71875 0q0 3.34375 0.78125 4.453125q0.796875 1.109375 1.9375 1.109375q1.15625 0 1.9375 -1.109375q0.78125 -1.125 0.78125 -4.453125q0 -3.359375 -0.78125 -4.46875q-0.78125 -1.109375 -1.953125 -1.109375q-1.15625 0 -1.828125 0.984375q-0.875 1.234375 -0.875 4.59375zm9.594482 6.703125l0 -1.90625l1.90625 0l0 1.90625l-1.90625 0zm12.917664 -10.265625l-1.65625 0.125q-0.21875 -0.984375 -0.640625 -1.421875q-0.671875 -0.71875 -1.65625 -0.71875q-0.8125 0 -1.40625 0.4375q-0.796875 0.578125 -1.25 1.6875q-0.453125 1.09375 -0.46875 3.140625q0.609375 -0.921875 1.46875 -1.359375q0.875 -0.453125 1.828125 -0.453125q1.671875 0 2.84375 1.234375q1.171875 1.234375 1.171875 3.171875q0 1.28125 -0.546875 2.390625q-0.546875 1.09375 -1.515625 1.6875q-0.96875 0.578125 -2.1875 0.578125q-2.09375 0 -3.40625 -1.53125q-1.3125 -1.546875 -1.3125 -5.0625q0 -3.953125 1.453125 -5.734375q1.265625 -1.5625 3.421875 -1.5625q1.609375 0 2.625 0.90625q1.03125 0.890625 1.234375 2.484375zm-6.8125 5.859375q0 0.859375 0.359375 1.65625q0.375 0.78125 1.03125 1.203125q0.65625 0.40625 1.375 0.40625q1.0625 0 1.8125 -0.84375q0.765625 -0.859375 0.765625 -2.328125q0 -1.40625 -0.75 -2.21875q-0.75 -0.8125 -1.890625 -0.8125q-1.125 0 -1.921875 0.8125q-0.78125 0.8125 -0.78125 2.125z" fill-rule="nonzero"></path></g></svg>

